/* XPM */
static char * balloon_xpm[] = {
"32 32 7 1",
" 	c None",
".	c #708090",
"+	c #0000FF",
"@	c #FF0000",
"#	c #000000",
"$	c #A0522D",
"%	c #B22222",
"                                ",
"            ........            ",
"         ..++.@@.+.@@..         ",
"        .+++.@@.+++.@@@.        ",
"        .+++.@@.+++.@@@.        ",
"       .+++.@@@.++++.@@@.       ",
"       .+++.@@@+++++.@@@.       ",
"      .+++.@@@.++++++.@@@.      ",
"      .+++.@@@.++++++.@@@.      ",
"      .+++.@@@.++++++.@@@.      ",
"      .+++.@@@.++++++.@@@.      ",
"      ..++.@@@.++++++.@@..      ",
"       .++.@@@.++++++.@@.       ",
"       ....@@@.+++++.@...       ",
"        .@.+.........++.        ",
"        .@@++++.@@@@.++.        ",
"         .@.+++.@@@@++.         ",
"         .@@+++.@@@.++.         ",
"          .@.+++@@@++.          ",
"          .@@+++.@.++.          ",
"           .@.++.@.+.           ",
"           .@.++.@.+.           ",
"            ########            ",
"            .      .            ",
"            .  ##  .            ",
"            .  $$  .            ",
"            .  ++  .            ",
"            $%$%$%$%            ",
"            %$%$%$%$            ",
"            $%$%$%$%            ",
"             $%$%$%             ",
"                                "};
