/* XPM */
static char *cross[]={
"21 21 3 1",
"# c None",
". c #000000",
"a c #ffffff",
"...###############...",
".a..#############..a.",
"..a..###########..a..",
"#..a..#########..a..#",
"##..a..#######..a..##",
"###..a..#####..a..###",
"####..a..###..a..####",
"#####..a..#..a..#####",
"######..a...a..######",
"#######..a.a..#######",
"########..a..########",
"#######..a.a..#######",
"######..a...a..######",
"#####..a..#..a..#####",
"####..a..###..a..####",
"###..a..#####..a..###",
"##..a..#######..a..##",
"#..a..#########..a..#",
"..a..###########..a..",
".a..#############..a.",
"...###############..."};
