/* XPM */
static char * green_circle_xpm[] = {
"18 18 7 1",
" 	c None",
".	c #06F60E",
"+	c #06FE0E",
"@	c #05DC0C",
"#	c #05D10B",
"$	c #07FF0F",
"%	c #06FC0E",
"      . + + @     ",
"   # $ $ $ $ %    ",
"  @ $ $ $ $ $ +   ",
" # $ $ $ $ $ $ +  ",
"  $ $ $ $ $ $ $ % ",
" $ $ $ $ $ $ $ $ @",
". $ $ $ $ $ $ $ $ ",
" $ $ $ $ $ $ $ $ +",
"+ $ $ $ $ $ $ $ $ ",
" $ $ $ $ $ $ $ $ +",
"+ $ $ $ $ $ $ $ $ ",
" $ $ $ $ $ $ $ $ .",
"@ $ $ $ $ $ $ $ $ ",
" % $ $ $ $ $ $ $  ",
"  + $ $ $ $ $ $ # ",
"   + $ $ $ $ $ @  ",
"    % $ $ $ $ #   ",
"     @ + + .      "};
