/* XPM */
static char *outlanding[]={
"32 32 6 1",
"d c None",
". c None",
"# c #000000",
"c c #00b700",
"b c #ff0000",
"a c #ffffff",
"...............##...............",
"..............####..............",
"...............##...............",
"...............############.....",
"...............##aabbaabba######",
"...............##aabbaabbaabbaa#",
"...............##aabbaabbaabbaa#",
"...............##aabbaab########",
"...............##########.......",
"...............##...............",
"...............##...............",
"...............##...............",
"...............##...............",
"...............##...............",
"...............##...............",
"..............ccccd.............",
".............ccccccd............",
"............ccccccccd...........",
"...........ccccccccccd..........",
"..........ccccccccccccd.........",
".........ccccccccccccccd........",
"................................",
"................................",
"................................",
"................................",
"................................",
"................................",
"................................",
"................................",
"................................",
"................................",
"................................"};
