/* XPM */
static char *outlanding[]={
"32 32 5 1",
". c None",
"# c #000000",
"c c #00b700",
"b c #ff0000",
"a c #ffffff",
"..............##................",
".............####...............",
"..............##................",
"..............#############.....",
"..............##aabbaabba#######",
"..............##aabbaabbaabbaab#",
"..............##aabbaabbaabbaab#",
"..............##aabbaabbaabbaab#",
"..............##aabbaabba#######",
"..............#############.....",
"..............##................",
"..............##................",
"..............##................",
"..............##................",
"..............##................",
"..............##................",
"..............##................",
"..............##................",
"..............##................",
"..............##................",
"..............##................",
"..............##................",
"..............##................",
".............cccc...............",
"............cccccc..............",
"...........cccccccc.............",
"..........cccccccccc............",
".........cccccccccccc...........",
"........cccccccccccccc..........",
".......cccccccccccccccc.........",
"......cccccccccccccccccc........",
".....cccccccccccccccccccc......."};
