/* XPM */
static char * railway_xpm[] = {
"32 32 8 1",
" 	c None",
".	c #BEBEBE",
"+	c #708090",
"@	c #000000",
"#	c #A0522D",
"$	c #FF0000",
"%	c #FFFF00",
"&	c #FFFFFF",
"                                ",
"                                ",
"                                ",
"                                ",
"                                ",
"                                ",
"                                ",
"                                ",
"                                ",
"                                ",
"                                ",
"                                ",
"        .................       ",
"           ..++++++++++++..     ",
"                      ..++.     ",
"                         ..     ",
"                         @@     ",
"   @@@@@@@@@@            @@     ",
"    @@@@@@@@@       ##   $$     ",
"     @.@.@.@@       %#   @@     ",
"     @.@.@.@@@@@@@@@@@@@@@@     ",
"     @@@@@@@@@@@@@@@@@@@@@@     ",
"     @@@@@@@@@@@@@@@@@@@@@@+    ",
"    @@@+++@@@+++@@@@@@@@@@@++   ",
"    @@+@@@+@+@@@+@@@@@@++@@+@+  ",
"    @@+@&.....&@+@@@@@+@@+@+@@+ ",
"      @@@@@ @@@@@     @@@@      ",
"       @@@   @@@       @@       ",
" ############################## ",
" ############################## ",
"                                ",
"                                "};
