/* XPM */
static char * red_circle_xpm[] = {
"18 18 3 1",
" 	c None",
".	c #FF0000",
"+	c #CE3535",
"      . . . .     ",
"   + . . . . .    ",
"  + . . . . . .   ",
" + . . . . . . .  ",
"  . . . . . . . . ",
" . . . . . . . . +",
". . . . . . . . . ",
" . . . . . . . . .",
". . . . . . . . . ",
" . . . . . . . . .",
". . . . . . . . . ",
" . . . . . . . . .",
"+ . . . . . . . . ",
" . . . . . . . .  ",
"  . . . . . . . + ",
"   . . . . . . +  ",
"    . . . . . +   ",
"     . . . .      "};
