/* XPM */
static char * userpoint_xpm[] = {
"32 32 2 1",
" 	c None",
".	c #ff00ff",
"                                ",
"                                ",
"                                ",
"                                ",
"                                ",
"                                ",
"                                ",
"                                ",
"                                ",
"                                ",
"          ............          ",
"          ............          ",
"          ............          ",
"          ............          ",
"          ............          ",
"          ............          ",
"          ............          ",
"          ............          ",
"          ............          ",
"          ............          ",
"          ............          ",
"          ............          ",
"                                ",
"                                ",
"                                ",
"                                ",
"                                ",
"                                ",
"                                ",
"                                ",
"                                ",
"                                "};
