/* XPM */
static char * balloon_xpm[] = {
"15 15 74 1",
" 	c None",
".	c #76788A",
"+	c #787888",
"@	c #6C7894",
"#	c #373FC9",
"$	c #2025DF",
"%	c #D2202D",
"&	c #6D3C92",
"*	c #2520DA",
"=	c #D62529",
"-	c #B93F47",
";	c #4F5AB1",
">	c #080AF7",
",	c #703890",
"'	c #FA0405",
")	c #3331CD",
"!	c #0404FB",
"~	c #82387E",
"{	c #F40A0B",
"]	c #9A5A66",
"^	c #292ED7",
"/	c #191DE6",
"(	c #D11F2E",
"_	c #D2282D",
":	c #0503FA",
"<	c #0000FF",
"[	c #271FD9",
"}	c #DF1D20",
"|	c #CB2E34",
"1	c #2024E0",
"2	c #2328DC",
"3	c #E91417",
"4	c #C0383F",
"5	c #0404FC",
"6	c #1214EE",
"7	c #D72429",
"8	c #4852B8",
"9	c #E91416",
"0	c #A4525C",
"a	c #6B7A95",
"b	c #865E7A",
"c	c #9D2962",
"d	c #9D5862",
"e	c #333ACC",
"f	c #3138CE",
"g	c #564DA9",
"h	c #683998",
"i	c #777A89",
"j	c #C63339",
"k	c #451EBA",
"l	c #B23E4E",
"m	c #772189",
"n	c #2B31D4",
"o	c #965E6A",
"p	c #AF2250",
"q	c #0706F8",
"r	c #90206F",
"s	c #E50B1A",
"t	c #1C20E3",
"u	c #525EAD",
"v	c #C73238",
"w	c #3925C7",
"x	c #3C3CC3",
"y	c #A43C5B",
"z	c #2C32D4",
"A	c #6A383F",
"B	c #211B49",
"C	c #18184E",
"D	c #431B27",
"E	c #313878",
"F	c #3C1F11",
"G	c #5A248B",
"H	c #A93A28",
"I	c #A93A27",
"      .+@      ",
"    #$%&*=-    ",
"   ;>,')!~{]   ",
"   ^/(_:<[}|   ",
"   12345<6_7   ",
"   82945<6_0   ",
"   abcdefghi   ",
"    jk5l'mn    ",
"    opqrstu    ",
"     vwxyz     ",
"     ABCDE     ",
"       F       ",
"       G       ",
"      HHI      ",
"       H       "};
