/* XPM */
static char * red_circle_xpm[] = {
"18 18 2 1",
" 	c None",
".	c #FF0000",
"      . . . .     ",
"   . . . . . .    ",
"  . . . . . . .   ",
" . . . . . . . .  ",
"  . . . . . . . . ",
" . . . . . . . . .",
". . . . . . . . . ",
" . . . . . . . . .",
". . . . . . . . . ",
" . . . . . . . . .",
". . . . . . . . . ",
" . . . . . . . . .",
". . . . . . . . . ",
" . . . . . . . .  ",
"  . . . . . . . . ",
"   . . . . . . .  ",
"    . . . . . .   ",
"     . . . .      "};
