/* XPM */
static char * thermal_small_xpm[] = {
"16 16 6 1",
" 	c None",
".	c #000000",
"+	c #ff9966",
"@	c #00A700",
"#	c #007000",
"$	c #003800",
"                ",
"     ...        ",
"     .+@##$..   ",
"     .@+++++@$  ",
"     .#+++@$.   ",
"     .#+@$.     ",
"      .$.       ",
"      .         ",
"      .         ",
"      ..        ",
"      ..        ",
"       .        ",
"       .        ",
"       .        ",
"       ..       ",
"       ..       "};

