/* XPM */
static char *cross[]={
"27 27 3 1",
"# c None",
". c #000000",
"a c #000000",
"..#######################..",
".a..###################..a.",
"..a..#################..a..",
"#..a..###############..a..#",
"##..a..#############..a..##",
"###..a..###########..a..###",
"####..a..#########..a..####",
"#####..a..#######..a..#####",
"######..a..#####..a..######",
"#######..a..###..a..#######",
"########..a..#..a..########",
"#########..a...a..#########",
"##########..a.a..##########",
"###########..a..###########",
"##########..a.a..##########",
"#########..a...a..#########",
"########..a..#..a..########",
"#######..a..###..a..#######",
"######..a..#####..a..######",
"#####..a..#######..a..#####",
"####..a..#########..a..####",
"###..a..###########..a..###",
"##..a..#############..a..##",
"#..a..###############..a..#",
"..a..#################..a..",
".a..###################..a.",
"...#####################..."};
