/* XPM */
static char * outlanding_xpm[] = {
"16 16 7 1",
" 	c None",
".	c #000000",
"+	c #800000",
"@	c #595959",
"#	c #FFFFFF",
"$	c #FF0000",
"%	c #00B700",
"       .        ",
"       ..+.+.+@ ",
"       .#$#$#$#$",
"       ..+.+.+@.",
"       .        ",
"       .        ",
"       .        ",
"       .        ",
"       .%       ",
"     % %% %     ",
"    %%%%%%%     ",
"   %%%%%%%%%    ",
"                ",
"                ",
"                ",
"                "};
