/* XPM */
static char * railway_xpm[] = {
"16 16 16 1",
" 	c None",
".	c #BEBEBE",
"+	c #AAAEB2",
"@	c #979FA7",
"#	c #A4A9AF",
"$	c #8A959F",
"%	c #000000",
"&	c #303030",
"*	c #B87D22",
"=	c #800000",
"-	c #1C2024",
";	c #384048",
">	c #6F6F6F",
",	c #7B7F83",
"'	c #404040",
")	c #A0522D",
"                ",
"                ",
"                ",
"                ",
"                ",
"                ",
"    ..+@@@@@#   ",
"           .$.  ",
"  %%%%      %%  ",
"  %&&&%   * ==  ",
"  %&&&%%%%%%%%  ",
"  %-;%-;%%%%%;  ",
"  %;>,,';%%;;;- ",
"   %% %%   %%   ",
"))))))))))))))))",
"                "};
