/* XPM */
static char *village[]={
"16 16 4 1",
"# c None",
". c None",
"a c #303030",
"b c #ffff00",
"................",
"................",
"................",
"................",
"................",
".....##aa#......",
".....#abba#.....",
".....abbbba.....",
".....abbbba.....",
".....#abba......",
"......#aa.......",
"................",
"................",
"................",
"................",
"................"};

